<svg width="25" height="25" viewBox="0 0 14 14" fill="none" xmlns="http://www.w3.org/2000/svg">
<path d="M4 8L5.37573 6.85355C5.61005 6.6583 5.98996 6.6583 6.22426 6.85355L7.17574 7.64645C7.41004 7.8417 7.78996 7.8417 8.02426 7.64645L10 6M10 6V7.25M10 6H8.5" stroke="black" stroke-linecap="round" stroke-linejoin="round"/>
<path fill-rule="evenodd" clip-rule="evenodd" d="M6.96262 9.45397e-08C5.4595 -6.41709e-06 4.28152 -1.29536e-05 3.36242 0.123558C2.42165 0.25004 1.67932 0.513982 1.09665 1.09665C0.513982 1.67932 0.25004 2.42165 0.123558 3.36242C-1.29536e-05 4.28152 -6.41709e-06 5.4595 9.45397e-08 6.96262V7.03738C-6.41709e-06 8.54052 -1.29536e-05 9.71847 0.123558 10.6376C0.25004 11.5783 0.513982 12.3207 1.09665 12.9034C1.67932 13.486 2.42165 13.75 3.36242 13.8765C4.28152 14 5.4595 14 6.96262 14H7.03738C8.54052 14 9.71847 14 10.6376 13.8765C11.5783 13.75 12.3207 13.486 12.9034 12.9034C13.486 12.3207 13.75 11.5783 13.8765 10.6376C14 9.71847 14 8.54052 14 7.03738V6.96262C14 5.4595 14 4.28152 13.8765 3.36242C13.75 2.42165 13.486 1.67932 12.9034 1.09665C12.3207 0.513982 11.5783 0.25004 10.6376 0.123558C9.71847 -1.29536e-05 8.54052 -6.41709e-06 7.03738 9.45397e-08H6.96262ZM1.78731 1.78731C2.15825 1.41637 2.66011 1.20351 3.49256 1.09159C4.33906 0.97778 5.45139 0.976744 7 0.976744C8.5486 0.976744 9.66091 0.97778 10.5074 1.09159C11.3399 1.20351 11.8417 1.41637 12.2127 1.78731C12.5837 2.15825 12.7965 2.66011 12.9084 3.49256C13.0222 4.33906 13.0233 5.45139 13.0233 7C13.0233 8.5486 13.0222 9.66091 12.9084 10.5074C12.7965 11.3399 12.5837 11.8417 12.2127 12.2127C11.8417 12.5837 11.3399 12.7965 10.5074 12.9084C9.66091 13.0222 8.5486 13.0233 7 13.0233C5.45139 13.0233 4.33906 13.0222 3.49256 12.9084C2.66011 12.7965 2.15825 12.5837 1.78731 12.2127C1.41637 11.8417 1.20351 11.3399 1.09159 10.5074C0.97778 9.66091 0.976744 8.5486 0.976744 7C0.976744 5.45139 0.97778 4.33906 1.09159 3.49256C1.20351 2.66011 1.41637 2.15825 1.78731 1.78731Z" fill="black"/>
</svg>
