<svg width="44" height="44" viewBox="0 0 44 44" fill="none" xmlns="http://www.w3.org/2000/svg">
<circle cx="22" cy="22" r="22" fill="#F52D30"/>
<mask id="mask0_1797_2061" style="mask-type:alpha" maskUnits="userSpaceOnUse" x="0" y="0" width="44" height="44">
<circle cx="22" cy="22" r="22" fill="#F52D30"/>
</mask>
<g mask="url(#mask0_1797_2061)">
<path d="M12.256 17.6C12.979 16.8828 13.8911 16.72 14.9135 16.72C15.9359 16.72 16.8474 16.8828 17.5709 17.6L22 22L26.4291 17.6C27.1519 16.8828 28.0647 16.72 29.0865 16.72C30.1089 16.72 31.021 16.8824 31.7439 17.6C33.2361 19.0804 33.2361 21.3994 31.7439 22.88L22 32.56L12.256 22.88C10.7638 21.3991 10.7638 19.0808 12.256 17.6ZM24.6574 36.96L35.2872 26.4C38.691 23.0231 38.691 17.4566 35.2872 14.08C33.639 12.4442 31.4185 11.44 29.0865 11.44C26.7551 11.44 24.5346 12.4442 22.8858 14.08L22 14.96L21.1142 14.08C19.4654 12.4442 17.2448 11.44 14.9135 11.44C12.5813 11.44 10.3609 12.4446 8.71279 14.08C5.30912 17.457 5.30912 23.0228 8.71279 26.4L19.3425 36.96L19.36 44H24.6574V36.96Z" fill="white"/>
</g>
</svg>
