<svg width="25" height="25" viewBox="0 0 14 14" fill="none" xmlns="http://www.w3.org/2000/svg">
<path fill-rule="evenodd" clip-rule="evenodd" d="M6.96262 9.45397e-08C5.4595 -6.41709e-06 4.28152 -1.29536e-05 3.36242 0.123558C2.42165 0.25004 1.67932 0.513982 1.09665 1.09665C0.513982 1.67932 0.25004 2.42165 0.123558 3.36242C-1.29536e-05 4.28152 -6.41709e-06 5.4595 9.45397e-08 6.96262V7.03738C-6.41709e-06 8.54052 -1.29536e-05 9.71847 0.123558 10.6376C0.25004 11.5783 0.513982 12.3207 1.09665 12.9034C1.67932 13.486 2.42165 13.75 3.36242 13.8765C4.28152 14 5.4595 14 6.96262 14H7.03738C8.54052 14 9.71847 14 10.6376 13.8765C11.5783 13.75 12.3207 13.486 12.9034 12.9034C13.486 12.3207 13.75 11.5783 13.8765 10.6376C14 9.71847 14 8.54052 14 7.03738V6.96262C14 5.4595 14 4.28152 13.8765 3.36242C13.75 2.42165 13.486 1.67932 12.9034 1.09665C12.3207 0.513982 11.5783 0.25004 10.6376 0.123558C9.71847 -1.29536e-05 8.54052 -6.41709e-06 7.03738 9.45397e-08H6.96262ZM1.78731 1.78731C2.15825 1.41637 2.66011 1.20351 3.49256 1.09159C4.33906 0.97778 5.45139 0.976744 7 0.976744C8.5486 0.976744 9.66091 0.97778 10.5074 1.09159C11.3399 1.20351 11.8417 1.41637 12.2127 1.78731C12.5837 2.15825 12.7965 2.66011 12.9084 3.49256C13.0222 4.33906 13.0233 5.45139 13.0233 7C13.0233 8.5486 13.0222 9.66091 12.9084 10.5074C12.7965 11.3399 12.5837 11.8417 12.2127 12.2127C11.8417 12.5837 11.3399 12.7965 10.5074 12.9084C9.66091 13.0222 8.5486 13.0233 7 13.0233C5.45139 13.0233 4.33906 13.0222 3.49256 12.9084C2.66011 12.7965 2.15825 12.5837 1.78731 12.2127C1.41637 11.8417 1.20351 11.3399 1.09159 10.5074C0.97778 9.66091 0.976744 8.5486 0.976744 7C0.976744 5.45139 0.97778 4.33906 1.09159 3.49256C1.20351 2.66011 1.41637 2.15825 1.78731 1.78731Z" fill="black"/>
<path d="M3.2953 5.48063H10.6832C10.856 5.48063 10.9856 5.35102 10.9856 5.1782C10.9856 5.04859 10.9136 4.94778 10.7984 4.90457L7.12605 3.0324C7.03964 2.9892 6.93883 2.9892 6.85242 3.0324L3.16568 4.90457C3.03607 4.96218 2.97847 5.10619 3.00727 5.25021C3.05047 5.37982 3.15128 5.48063 3.2953 5.48063ZM6.99643 3.65166L9.41585 4.87577H4.57701L6.99643 3.65166ZM10.6832 9.5418H10.0927V6.17189C10.0927 5.99907 9.9631 5.86946 9.79029 5.86946C9.61747 5.86946 9.48786 5.99907 9.48786 6.17189V9.5418H8.22055V6.17189C8.22055 5.99907 8.09093 5.86946 7.91812 5.86946C7.7597 5.86946 7.61569 5.99907 7.61569 6.17189V9.5418H6.34837V6.17189C6.34837 5.99907 6.21876 5.86946 6.04595 5.86946C5.87313 5.86946 5.74352 5.99907 5.74352 6.17189V9.5418H4.4906V6.17189C4.4906 5.99907 4.36099 5.86946 4.18818 5.86946C4.01536 5.86946 3.90015 5.99907 3.90015 6.17189V9.5418H3.3097C3.13688 9.5418 3.00727 9.67141 3.00727 9.84423C3.00727 10.017 3.13688 10.1467 3.3097 10.1467H10.6976C10.8704 10.1467 11 10.017 11 9.84423C11 9.67141 10.856 9.5418 10.6832 9.5418Z" fill="black" stroke="black" stroke-width="0.25"/>
</svg>
