<svg width="25" height="25" viewBox="0 0 14 14" fill="none" xmlns="http://www.w3.org/2000/svg">
<path d="M10.6961 4.25449L7.14055 3.02372C7.04933 2.99209 6.95067 2.99209 6.85945 3.02372L3.31284 4.25139L3.31096 4.25204L3.30389 4.25449C3.29745 4.25672 3.29126 4.25941 3.28498 4.26192C3.27752 4.26489 3.27014 4.26797 3.26289 4.27134C3.25382 4.27555 3.24485 4.27993 3.23615 4.28473C3.23177 4.28714 3.22756 4.28982 3.22327 4.29238C3.2159 4.29677 3.20863 4.30128 3.20156 4.30608C3.19751 4.30883 3.19354 4.31168 3.18958 4.31457C3.18229 4.31986 3.17519 4.32538 3.16828 4.3311C3.16494 4.33386 3.16158 4.33656 3.15832 4.33942C3.15006 4.34665 3.14209 4.35417 3.1344 4.36199C3.13276 4.36366 3.131 4.3652 3.12937 4.36689C3.12018 4.37651 3.11142 4.38652 3.1031 4.39692C3.10075 4.39984 3.09861 4.40293 3.09634 4.40591C3.09059 4.41344 3.08501 4.42108 3.07973 4.42897C3.07682 4.43331 3.07405 4.43773 3.07129 4.44217C3.06697 4.44912 3.06283 4.45619 3.05889 4.46337C3.0562 4.46825 3.0535 4.47309 3.05097 4.47809C3.04706 4.48584 3.04347 4.4938 3.03997 4.5018C3.03804 4.50622 3.03591 4.51051 3.03411 4.51501C3.02935 4.52687 3.02513 4.53899 3.02132 4.55128C3.01977 4.55632 3.01853 4.56147 3.01714 4.56657C3.01487 4.5749 3.01273 4.58326 3.0109 4.59174C3.00975 4.59715 3.00872 4.6026 3.00774 4.60808C3.00613 4.61711 3.00483 4.62621 3.00373 4.63539C3.00316 4.64016 3.0025 4.6449 3.00207 4.64972C3.00082 4.6638 3 4.67798 3 4.69233V7.76926C3 7.89167 3.04683 8.00906 3.13017 8.09562C3.21352 8.18217 3.32657 8.2308 3.44444 8.2308C3.56232 8.2308 3.67536 8.18217 3.75871 8.09562C3.84206 8.00906 3.88889 7.89167 3.88889 7.76926V5.33266L4.76721 5.6367C4.49597 6.176 4.41457 6.79672 4.53705 7.3917C4.65954 7.98668 4.97822 8.51858 5.43809 8.89557C4.8085 9.19978 4.27398 9.68172 3.89556 10.2864C3.83121 10.3889 3.8087 10.5138 3.833 10.6335C3.8573 10.7533 3.92641 10.8581 4.02513 10.925C4.12386 10.9918 4.24411 11.0152 4.35944 10.99C4.47477 10.9648 4.57574 10.8931 4.64014 10.7906C4.89585 10.3825 5.24563 10.0473 5.65772 9.8152C6.06982 9.58312 6.5312 9.46157 6.99999 9.46157C7.46879 9.46157 7.93016 9.58312 8.34226 9.8152C8.75435 10.0473 9.10413 10.3825 9.35985 10.7906C9.42423 10.8931 9.5252 10.9649 9.64055 10.9901C9.75589 11.0153 9.87616 10.9919 9.9749 10.9251C10.0736 10.8582 10.1428 10.7533 10.167 10.6336C10.1913 10.5138 10.1688 10.3889 10.1044 10.2864C9.726 9.68173 9.19149 9.19979 8.56191 8.89557C9.02178 8.51858 9.34046 7.98669 9.46295 7.39171C9.58543 6.79672 9.50403 6.176 9.23279 5.6367L10.6961 5.13017C10.7846 5.09954 10.8616 5.04077 10.9161 4.96219C10.9707 4.88361 11 4.7892 11 4.69233C11 4.59546 10.9707 4.50105 10.9161 4.42247C10.8616 4.34389 10.7846 4.28512 10.6961 4.25449ZM7 3.94807L9.1501 4.69233L8.38316 4.9578L8.38195 4.95823L7 5.43658L5.61803 4.95822L5.61698 4.95785L4.8499 4.69233L7 3.94807ZM8.62963 6.84618C8.62968 7.10903 8.57077 7.36828 8.45756 7.60338C8.34436 7.83848 8.17998 8.04296 7.97744 8.20062C7.77491 8.35828 7.5398 8.46477 7.29074 8.51167C7.04169 8.55857 6.78554 8.54457 6.5426 8.47079C6.29965 8.39702 6.0766 8.26549 5.89112 8.08663C5.70564 7.90777 5.56282 7.6865 5.474 7.44037C5.38518 7.19423 5.35279 6.92999 5.3794 6.66859C5.40601 6.4072 5.49089 6.15583 5.62731 5.93443L6.85945 6.36094C6.95068 6.39254 7.04932 6.39254 7.14055 6.36094L8.37269 5.93443C8.54065 6.20652 8.62983 6.52298 8.62963 6.84618Z" fill="black"/>
<path fill-rule="evenodd" clip-rule="evenodd" d="M6.96262 9.45397e-08C5.4595 -6.41709e-06 4.28152 -1.29536e-05 3.36242 0.123558C2.42165 0.25004 1.67932 0.513982 1.09665 1.09665C0.513982 1.67932 0.25004 2.42165 0.123558 3.36242C-1.29536e-05 4.28152 -6.41709e-06 5.4595 9.45397e-08 6.96262V7.03738C-6.41709e-06 8.54052 -1.29536e-05 9.71847 0.123558 10.6376C0.25004 11.5783 0.513982 12.3207 1.09665 12.9034C1.67932 13.486 2.42165 13.75 3.36242 13.8765C4.28152 14 5.4595 14 6.96262 14H7.03738C8.54052 14 9.71847 14 10.6376 13.8765C11.5783 13.75 12.3207 13.486 12.9034 12.9034C13.486 12.3207 13.75 11.5783 13.8765 10.6376C14 9.71847 14 8.54052 14 7.03738V6.96262C14 5.4595 14 4.28152 13.8765 3.36242C13.75 2.42165 13.486 1.67932 12.9034 1.09665C12.3207 0.513982 11.5783 0.25004 10.6376 0.123558C9.71847 -1.29536e-05 8.54052 -6.41709e-06 7.03738 9.45397e-08H6.96262ZM1.78731 1.78731C2.15825 1.41637 2.66011 1.20351 3.49256 1.09159C4.33906 0.97778 5.45139 0.976744 7 0.976744C8.5486 0.976744 9.66091 0.97778 10.5074 1.09159C11.3399 1.20351 11.8417 1.41637 12.2127 1.78731C12.5837 2.15825 12.7965 2.66011 12.9084 3.49256C13.0222 4.33906 13.0233 5.45139 13.0233 7C13.0233 8.5486 13.0222 9.66091 12.9084 10.5074C12.7965 11.3399 12.5837 11.8417 12.2127 12.2127C11.8417 12.5837 11.3399 12.7965 10.5074 12.9084C9.66091 13.0222 8.5486 13.0233 7 13.0233C5.45139 13.0233 4.33906 13.0222 3.49256 12.9084C2.66011 12.7965 2.15825 12.5837 1.78731 12.2127C1.41637 11.8417 1.20351 11.3399 1.09159 10.5074C0.97778 9.66091 0.976744 8.5486 0.976744 7C0.976744 5.45139 0.97778 4.33906 1.09159 3.49256C1.20351 2.66011 1.41637 2.15825 1.78731 1.78731Z" fill="black"/>
</svg>
